<?xml version="1.0" encoding="utf-8" standalone="no"?>
<!DOCTYPE svg PUBLIC "-//W3C//DTD SVG 1.1//EN"
  "http://www.w3.org/Graphics/SVG/1.1/DTD/svg11.dtd">
<svg xmlns:xlink="http://www.w3.org/1999/xlink" width="1353.6pt" height="2010.24pt" viewBox="0 0 1353.6 2010.24" xmlns="http://www.w3.org/2000/svg" version="1.1">
 <metadata>
  <rdf:RDF xmlns:dc="http://purl.org/dc/elements/1.1/" xmlns:cc="http://creativecommons.org/ns#" xmlns:rdf="http://www.w3.org/1999/02/22-rdf-syntax-ns#">
   <cc:Work>
    <dc:type rdf:resource="http://purl.org/dc/dcmitype/StillImage"/>
    <dc:date>2025-12-12T23:23:12.134919</dc:date>
    <dc:format>image/svg+xml</dc:format>
    <dc:creator>
     <cc:Agent>
      <dc:title>Matplotlib v3.10.6, https://matplotlib.org/</dc:title>
     </cc:Agent>
    </dc:creator>
   </cc:Work>
  </rdf:RDF>
 </metadata>
 <defs>
  <style type="text/css">*{stroke-linejoin: round; stroke-linecap: butt}</style>
 </defs>
 <g id="figure_1">
  <g id="patch_1">
   <path d="M 0 2010.24 
L 1353.6 2010.24 
L 1353.6 0 
L 0 0 
L 0 2010.24 
z
" style="fill: none"/>
  </g>
  <g id="axes_1">
   <g id="QuadMesh_1">
    <path d="M 7.2 7.2 
L 128.945455 7.2 
L 128.945455 188.64 
L 7.2 188.64 
L 7.2 7.2 
" clip-path="url(#p3c79f7d61b)" style="fill: none"/>
    <path d="M 128.945455 7.2 
L 250.690909 7.2 
L 250.690909 188.64 
L 128.945455 188.64 
L 128.945455 7.2 
" clip-path="url(#p3c79f7d61b)" style="fill: none"/>
    <path d="M 250.690909 7.2 
L 372.436364 7.2 
L 372.436364 188.64 
L 250.690909 188.64 
L 250.690909 7.2 
" clip-path="url(#p3c79f7d61b)" style="fill: none"/>
    <path d="M 372.436364 7.2 
L 494.181818 7.2 
L 494.181818 188.64 
L 372.436364 188.64 
L 372.436364 7.2 
" clip-path="url(#p3c79f7d61b)" style="fill: none"/>
    <path d="M 494.181818 7.2 
L 615.927273 7.2 
L 615.927273 188.64 
L 494.181818 188.64 
L 494.181818 7.2 
" clip-path="url(#p3c79f7d61b)" style="fill: none"/>
    <path d="M 615.927273 7.2 
L 737.672727 7.2 
L 737.672727 188.64 
L 615.927273 188.64 
L 615.927273 7.2 
" clip-path="url(#p3c79f7d61b)" style="fill: none"/>
    <path d="M 737.672727 7.2 
L 859.418182 7.2 
L 859.418182 188.64 
L 737.672727 188.64 
L 737.672727 7.2 
" clip-path="url(#p3c79f7d61b)" style="fill: none"/>
    <path d="M 859.418182 7.2 
L 981.163636 7.2 
L 981.163636 188.64 
L 859.418182 188.64 
L 859.418182 7.2 
" clip-path="url(#p3c79f7d61b)" style="fill: none"/>
    <path d="M 981.163636 7.2 
L 1102.909091 7.2 
L 1102.909091 188.64 
L 981.163636 188.64 
L 981.163636 7.2 
" clip-path="url(#p3c79f7d61b)" style="fill: none"/>
    <path d="M 1102.909091 7.2 
L 1224.654545 7.2 
L 1224.654545 188.64 
L 1102.909091 188.64 
L 1102.909091 7.2 
" clip-path="url(#p3c79f7d61b)" style="fill: none"/>
    <path d="M 1224.654545 7.2 
L 1346.4 7.2 
L 1346.4 188.64 
L 1224.654545 188.64 
L 1224.654545 7.2 
" clip-path="url(#p3c79f7d61b)" style="fill: none"/>
    <path d="M 7.2 188.64 
L 128.945455 188.64 
L 128.945455 370.08 
L 7.2 370.08 
L 7.2 188.64 
" clip-path="url(#p3c79f7d61b)" style="fill: none"/>
    <path d="M 128.945455 188.64 
L 250.690909 188.64 
L 250.690909 370.08 
L 128.945455 370.08 
L 128.945455 188.64 
" clip-path="url(#p3c79f7d61b)" style="fill: none"/>
    <path d="M 250.690909 188.64 
L 372.436364 188.64 
L 372.436364 370.08 
L 250.690909 370.08 
L 250.690909 188.64 
" clip-path="url(#p3c79f7d61b)" style="fill: none"/>
    <path d="M 372.436364 188.64 
L 494.181818 188.64 
L 494.181818 370.08 
L 372.436364 370.08 
L 372.436364 188.64 
" clip-path="url(#p3c79f7d61b)" style="fill: none"/>
    <path d="M 494.181818 188.64 
L 615.927273 188.64 
L 615.927273 370.08 
L 494.181818 370.08 
L 494.181818 188.64 
" clip-path="url(#p3c79f7d61b)" style="fill: none"/>
    <path d="M 615.927273 188.64 
L 737.672727 188.64 
L 737.672727 370.08 
L 615.927273 370.08 
L 615.927273 188.64 
" clip-path="url(#p3c79f7d61b)" style="fill: none"/>
    <path d="M 737.672727 188.64 
L 859.418182 188.64 
L 859.418182 370.08 
L 737.672727 370.08 
L 737.672727 188.64 
" clip-path="url(#p3c79f7d61b)" style="fill: none"/>
    <path d="M 859.418182 188.64 
L 981.163636 188.64 
L 981.163636 370.08 
L 859.418182 370.08 
L 859.418182 188.64 
" clip-path="url(#p3c79f7d61b)" style="fill: none"/>
    <path d="M 981.163636 188.64 
L 1102.909091 188.64 
L 1102.909091 370.08 
L 981.163636 370.08 
L 981.163636 188.64 
" clip-path="url(#p3c79f7d61b)" style="fill: none"/>
    <path d="M 1102.909091 188.64 
L 1224.654545 188.64 
L 1224.654545 370.08 
L 1102.909091 370.08 
L 1102.909091 188.64 
" clip-path="url(#p3c79f7d61b)" style="fill: none"/>
    <path d="M 1224.654545 188.64 
L 1346.4 188.64 
L 1346.4 370.08 
L 1224.654545 370.08 
L 1224.654545 188.64 
" clip-path="url(#p3c79f7d61b)" style="fill: none"/>
    <path d="M 7.2 370.08 
L 128.945455 370.08 
L 128.945455 551.52 
L 7.2 551.52 
L 7.2 370.08 
" clip-path="url(#p3c79f7d61b)" style="fill: none"/>
    <path d="M 128.945455 370.08 
L 250.690909 370.08 
L 250.690909 551.52 
L 128.945455 551.52 
L 128.945455 370.08 
" clip-path="url(#p3c79f7d61b)" style="fill: #b2b2b2"/>
    <path d="M 250.690909 370.08 
L 372.436364 370.08 
L 372.436364 551.52 
L 250.690909 551.52 
L 250.690909 370.08 
" clip-path="url(#p3c79f7d61b)" style="fill: none"/>
    <path d="M 372.436364 370.08 
L 494.181818 370.08 
L 494.181818 551.52 
L 372.436364 551.52 
L 372.436364 370.08 
" clip-path="url(#p3c79f7d61b)" style="fill: none"/>
    <path d="M 494.181818 370.08 
L 615.927273 370.08 
L 615.927273 551.52 
L 494.181818 551.52 
L 494.181818 370.08 
" clip-path="url(#p3c79f7d61b)" style="fill: none"/>
    <path d="M 615.927273 370.08 
L 737.672727 370.08 
L 737.672727 551.52 
L 615.927273 551.52 
L 615.927273 370.08 
" clip-path="url(#p3c79f7d61b)" style="fill: none"/>
    <path d="M 737.672727 370.08 
L 859.418182 370.08 
L 859.418182 551.52 
L 737.672727 551.52 
L 737.672727 370.08 
" clip-path="url(#p3c79f7d61b)" style="fill: none"/>
    <path d="M 859.418182 370.08 
L 981.163636 370.08 
L 981.163636 551.52 
L 859.418182 551.52 
L 859.418182 370.08 
" clip-path="url(#p3c79f7d61b)" style="fill: none"/>
    <path d="M 981.163636 370.08 
L 1102.909091 370.08 
L 1102.909091 551.52 
L 981.163636 551.52 
L 981.163636 370.08 
" clip-path="url(#p3c79f7d61b)" style="fill: none"/>
    <path d="M 1102.909091 370.08 
L 1224.654545 370.08 
L 1224.654545 551.52 
L 1102.909091 551.52 
L 1102.909091 370.08 
" clip-path="url(#p3c79f7d61b)" style="fill: none"/>
    <path d="M 1224.654545 370.08 
L 1346.4 370.08 
L 1346.4 551.52 
L 1224.654545 551.52 
L 1224.654545 370.08 
" clip-path="url(#p3c79f7d61b)" style="fill: none"/>
    <path d="M 7.2 551.52 
L 128.945455 551.52 
L 128.945455 732.96 
L 7.2 732.96 
L 7.2 551.52 
" clip-path="url(#p3c79f7d61b)" style="fill: none"/>
    <path d="M 128.945455 551.52 
L 250.690909 551.52 
L 250.690909 732.96 
L 128.945455 732.96 
L 128.945455 551.52 
" clip-path="url(#p3c79f7d61b)" style="fill: #a9a9a9"/>
    <path d="M 250.690909 551.52 
L 372.436364 551.52 
L 372.436364 732.96 
L 250.690909 732.96 
L 250.690909 551.52 
" clip-path="url(#p3c79f7d61b)" style="fill: #131313"/>
    <path d="M 372.436364 551.52 
L 494.181818 551.52 
L 494.181818 732.96 
L 372.436364 732.96 
L 372.436364 551.52 
" clip-path="url(#p3c79f7d61b)" style="fill: none"/>
    <path d="M 494.181818 551.52 
L 615.927273 551.52 
L 615.927273 732.96 
L 494.181818 732.96 
L 494.181818 551.52 
" clip-path="url(#p3c79f7d61b)" style="fill: none"/>
    <path d="M 615.927273 551.52 
L 737.672727 551.52 
L 737.672727 732.96 
L 615.927273 732.96 
L 615.927273 551.52 
" clip-path="url(#p3c79f7d61b)" style="fill: none"/>
    <path d="M 737.672727 551.52 
L 859.418182 551.52 
L 859.418182 732.96 
L 737.672727 732.96 
L 737.672727 551.52 
" clip-path="url(#p3c79f7d61b)" style="fill: none"/>
    <path d="M 859.418182 551.52 
L 981.163636 551.52 
L 981.163636 732.96 
L 859.418182 732.96 
L 859.418182 551.52 
" clip-path="url(#p3c79f7d61b)" style="fill: none"/>
    <path d="M 981.163636 551.52 
L 1102.909091 551.52 
L 1102.909091 732.96 
L 981.163636 732.96 
L 981.163636 551.52 
" clip-path="url(#p3c79f7d61b)" style="fill: none"/>
    <path d="M 1102.909091 551.52 
L 1224.654545 551.52 
L 1224.654545 732.96 
L 1102.909091 732.96 
L 1102.909091 551.52 
" clip-path="url(#p3c79f7d61b)" style="fill: none"/>
    <path d="M 1224.654545 551.52 
L 1346.4 551.52 
L 1346.4 732.96 
L 1224.654545 732.96 
L 1224.654545 551.52 
" clip-path="url(#p3c79f7d61b)" style="fill: none"/>
    <path d="M 7.2 732.96 
L 128.945455 732.96 
L 128.945455 914.4 
L 7.2 914.4 
L 7.2 732.96 
" clip-path="url(#p3c79f7d61b)" style="fill: none"/>
    <path d="M 128.945455 732.96 
L 250.690909 732.96 
L 250.690909 914.4 
L 128.945455 914.4 
L 128.945455 732.96 
" clip-path="url(#p3c79f7d61b)" style="fill: #212121"/>
    <path d="M 250.690909 732.96 
L 372.436364 732.96 
L 372.436364 914.4 
L 250.690909 914.4 
L 250.690909 732.96 
" clip-path="url(#p3c79f7d61b)" style="fill: #a7a7a7"/>
    <path d="M 372.436364 732.96 
L 494.181818 732.96 
L 494.181818 914.4 
L 372.436364 914.4 
L 372.436364 732.96 
" clip-path="url(#p3c79f7d61b)" style="fill: #ffffff"/>
    <path d="M 494.181818 732.96 
L 615.927273 732.96 
L 615.927273 914.4 
L 494.181818 914.4 
L 494.181818 732.96 
" clip-path="url(#p3c79f7d61b)" style="fill: none"/>
    <path d="M 615.927273 732.96 
L 737.672727 732.96 
L 737.672727 914.4 
L 615.927273 914.4 
L 615.927273 732.96 
" clip-path="url(#p3c79f7d61b)" style="fill: none"/>
    <path d="M 737.672727 732.96 
L 859.418182 732.96 
L 859.418182 914.4 
L 737.672727 914.4 
L 737.672727 732.96 
" clip-path="url(#p3c79f7d61b)" style="fill: none"/>
    <path d="M 859.418182 732.96 
L 981.163636 732.96 
L 981.163636 914.4 
L 859.418182 914.4 
L 859.418182 732.96 
" clip-path="url(#p3c79f7d61b)" style="fill: none"/>
    <path d="M 981.163636 732.96 
L 1102.909091 732.96 
L 1102.909091 914.4 
L 981.163636 914.4 
L 981.163636 732.96 
" clip-path="url(#p3c79f7d61b)" style="fill: none"/>
    <path d="M 1102.909091 732.96 
L 1224.654545 732.96 
L 1224.654545 914.4 
L 1102.909091 914.4 
L 1102.909091 732.96 
" clip-path="url(#p3c79f7d61b)" style="fill: none"/>
    <path d="M 1224.654545 732.96 
L 1346.4 732.96 
L 1346.4 914.4 
L 1224.654545 914.4 
L 1224.654545 732.96 
" clip-path="url(#p3c79f7d61b)" style="fill: none"/>
    <path d="M 7.2 914.4 
L 128.945455 914.4 
L 128.945455 1095.84 
L 7.2 1095.84 
L 7.2 914.4 
" clip-path="url(#p3c79f7d61b)" style="fill: none"/>
    <path d="M 128.945455 914.4 
L 250.690909 914.4 
L 250.690909 1095.84 
L 128.945455 1095.84 
L 128.945455 914.4 
" clip-path="url(#p3c79f7d61b)" style="fill: #030303"/>
    <path d="M 250.690909 914.4 
L 372.436364 914.4 
L 372.436364 1095.84 
L 250.690909 1095.84 
L 250.690909 914.4 
" clip-path="url(#p3c79f7d61b)" style="fill: #888888"/>
    <path d="M 372.436364 914.4 
L 494.181818 914.4 
L 494.181818 1095.84 
L 372.436364 1095.84 
L 372.436364 914.4 
" clip-path="url(#p3c79f7d61b)" style="fill: #8e8e8e"/>
    <path d="M 494.181818 914.4 
L 615.927273 914.4 
L 615.927273 1095.84 
L 494.181818 1095.84 
L 494.181818 914.4 
" clip-path="url(#p3c79f7d61b)" style="fill: #242424"/>
    <path d="M 615.927273 914.4 
L 737.672727 914.4 
L 737.672727 1095.84 
L 615.927273 1095.84 
L 615.927273 914.4 
" clip-path="url(#p3c79f7d61b)" style="fill: none"/>
    <path d="M 737.672727 914.4 
L 859.418182 914.4 
L 859.418182 1095.84 
L 737.672727 1095.84 
L 737.672727 914.4 
" clip-path="url(#p3c79f7d61b)" style="fill: none"/>
    <path d="M 859.418182 914.4 
L 981.163636 914.4 
L 981.163636 1095.84 
L 859.418182 1095.84 
L 859.418182 914.4 
" clip-path="url(#p3c79f7d61b)" style="fill: none"/>
    <path d="M 981.163636 914.4 
L 1102.909091 914.4 
L 1102.909091 1095.84 
L 981.163636 1095.84 
L 981.163636 914.4 
" clip-path="url(#p3c79f7d61b)" style="fill: none"/>
    <path d="M 1102.909091 914.4 
L 1224.654545 914.4 
L 1224.654545 1095.84 
L 1102.909091 1095.84 
L 1102.909091 914.4 
" clip-path="url(#p3c79f7d61b)" style="fill: none"/>
    <path d="M 1224.654545 914.4 
L 1346.4 914.4 
L 1346.4 1095.84 
L 1224.654545 1095.84 
L 1224.654545 914.4 
" clip-path="url(#p3c79f7d61b)" style="fill: none"/>
    <path d="M 7.2 1095.84 
L 128.945455 1095.84 
L 128.945455 1277.28 
L 7.2 1277.28 
L 7.2 1095.84 
" clip-path="url(#p3c79f7d61b)" style="fill: none"/>
    <path d="M 128.945455 1095.84 
L 250.690909 1095.84 
L 250.690909 1277.28 
L 128.945455 1277.28 
L 128.945455 1095.84 
" clip-path="url(#p3c79f7d61b)" style="fill: #484848"/>
    <path d="M 250.690909 1095.84 
L 372.436364 1095.84 
L 372.436364 1277.28 
L 250.690909 1277.28 
L 250.690909 1095.84 
" clip-path="url(#p3c79f7d61b)" style="fill: #767676"/>
    <path d="M 372.436364 1095.84 
L 494.181818 1095.84 
L 494.181818 1277.28 
L 372.436364 1277.28 
L 372.436364 1095.84 
" clip-path="url(#p3c79f7d61b)" style="fill: #aeaeae"/>
    <path d="M 494.181818 1095.84 
L 615.927273 1095.84 
L 615.927273 1277.28 
L 494.181818 1277.28 
L 494.181818 1095.84 
" clip-path="url(#p3c79f7d61b)"/>
    <path d="M 615.927273 1095.84 
L 737.672727 1095.84 
L 737.672727 1277.28 
L 615.927273 1277.28 
L 615.927273 1095.84 
" clip-path="url(#p3c79f7d61b)" style="fill: #5e5e5e"/>
    <path d="M 737.672727 1095.84 
L 859.418182 1095.84 
L 859.418182 1277.28 
L 737.672727 1277.28 
L 737.672727 1095.84 
" clip-path="url(#p3c79f7d61b)" style="fill: none"/>
    <path d="M 859.418182 1095.84 
L 981.163636 1095.84 
L 981.163636 1277.28 
L 859.418182 1277.28 
L 859.418182 1095.84 
" clip-path="url(#p3c79f7d61b)" style="fill: none"/>
    <path d="M 981.163636 1095.84 
L 1102.909091 1095.84 
L 1102.909091 1277.28 
L 981.163636 1277.28 
L 981.163636 1095.84 
" clip-path="url(#p3c79f7d61b)" style="fill: none"/>
    <path d="M 1102.909091 1095.84 
L 1224.654545 1095.84 
L 1224.654545 1277.28 
L 1102.909091 1277.28 
L 1102.909091 1095.84 
" clip-path="url(#p3c79f7d61b)" style="fill: none"/>
    <path d="M 1224.654545 1095.84 
L 1346.4 1095.84 
L 1346.4 1277.28 
L 1224.654545 1277.28 
L 1224.654545 1095.84 
" clip-path="url(#p3c79f7d61b)" style="fill: none"/>
    <path d="M 7.2 1277.28 
L 128.945455 1277.28 
L 128.945455 1458.72 
L 7.2 1458.72 
L 7.2 1277.28 
" clip-path="url(#p3c79f7d61b)" style="fill: none"/>
    <path d="M 128.945455 1277.28 
L 250.690909 1277.28 
L 250.690909 1458.72 
L 128.945455 1458.72 
L 128.945455 1277.28 
" clip-path="url(#p3c79f7d61b)" style="fill: #525252"/>
    <path d="M 250.690909 1277.28 
L 372.436364 1277.28 
L 372.436364 1458.72 
L 250.690909 1458.72 
L 250.690909 1277.28 
" clip-path="url(#p3c79f7d61b)" style="fill: #7f7f7f"/>
    <path d="M 372.436364 1277.28 
L 494.181818 1277.28 
L 494.181818 1458.72 
L 372.436364 1458.72 
L 372.436364 1277.28 
" clip-path="url(#p3c79f7d61b)" style="fill: #6d6d6d"/>
    <path d="M 494.181818 1277.28 
L 615.927273 1277.28 
L 615.927273 1458.72 
L 494.181818 1458.72 
L 494.181818 1277.28 
" clip-path="url(#p3c79f7d61b)" style="fill: #393939"/>
    <path d="M 615.927273 1277.28 
L 737.672727 1277.28 
L 737.672727 1458.72 
L 615.927273 1458.72 
L 615.927273 1277.28 
" clip-path="url(#p3c79f7d61b)" style="fill: #636363"/>
    <path d="M 737.672727 1277.28 
L 859.418182 1277.28 
L 859.418182 1458.72 
L 737.672727 1458.72 
L 737.672727 1277.28 
" clip-path="url(#p3c79f7d61b)" style="fill: #525252"/>
    <path d="M 859.418182 1277.28 
L 981.163636 1277.28 
L 981.163636 1458.72 
L 859.418182 1458.72 
L 859.418182 1277.28 
" clip-path="url(#p3c79f7d61b)" style="fill: none"/>
    <path d="M 981.163636 1277.28 
L 1102.909091 1277.28 
L 1102.909091 1458.72 
L 981.163636 1458.72 
L 981.163636 1277.28 
" clip-path="url(#p3c79f7d61b)" style="fill: none"/>
    <path d="M 1102.909091 1277.28 
L 1224.654545 1277.28 
L 1224.654545 1458.72 
L 1102.909091 1458.72 
L 1102.909091 1277.28 
" clip-path="url(#p3c79f7d61b)" style="fill: none"/>
    <path d="M 1224.654545 1277.28 
L 1346.4 1277.28 
L 1346.4 1458.72 
L 1224.654545 1458.72 
L 1224.654545 1277.28 
" clip-path="url(#p3c79f7d61b)" style="fill: none"/>
    <path d="M 7.2 1458.72 
L 128.945455 1458.72 
L 128.945455 1640.16 
L 7.2 1640.16 
L 7.2 1458.72 
" clip-path="url(#p3c79f7d61b)" style="fill: none"/>
    <path d="M 128.945455 1458.72 
L 250.690909 1458.72 
L 250.690909 1640.16 
L 128.945455 1640.16 
L 128.945455 1458.72 
" clip-path="url(#p3c79f7d61b)" style="fill: #6f6f6f"/>
    <path d="M 250.690909 1458.72 
L 372.436364 1458.72 
L 372.436364 1640.16 
L 250.690909 1640.16 
L 250.690909 1458.72 
" clip-path="url(#p3c79f7d61b)" style="fill: #6a6a6a"/>
    <path d="M 372.436364 1458.72 
L 494.181818 1458.72 
L 494.181818 1640.16 
L 372.436364 1640.16 
L 372.436364 1458.72 
" clip-path="url(#p3c79f7d61b)" style="fill: #717171"/>
    <path d="M 494.181818 1458.72 
L 615.927273 1458.72 
L 615.927273 1640.16 
L 494.181818 1640.16 
L 494.181818 1458.72 
" clip-path="url(#p3c79f7d61b)" style="fill: #4e4e4e"/>
    <path d="M 615.927273 1458.72 
L 737.672727 1458.72 
L 737.672727 1640.16 
L 615.927273 1640.16 
L 615.927273 1458.72 
" clip-path="url(#p3c79f7d61b)" style="fill: #5f5f5f"/>
    <path d="M 737.672727 1458.72 
L 859.418182 1458.72 
L 859.418182 1640.16 
L 737.672727 1640.16 
L 737.672727 1458.72 
" clip-path="url(#p3c79f7d61b)" style="fill: #6b6b6b"/>
    <path d="M 859.418182 1458.72 
L 981.163636 1458.72 
L 981.163636 1640.16 
L 859.418182 1640.16 
L 859.418182 1458.72 
" clip-path="url(#p3c79f7d61b)" style="fill: #545454"/>
    <path d="M 981.163636 1458.72 
L 1102.909091 1458.72 
L 1102.909091 1640.16 
L 981.163636 1640.16 
L 981.163636 1458.72 
" clip-path="url(#p3c79f7d61b)" style="fill: none"/>
    <path d="M 1102.909091 1458.72 
L 1224.654545 1458.72 
L 1224.654545 1640.16 
L 1102.909091 1640.16 
L 1102.909091 1458.72 
" clip-path="url(#p3c79f7d61b)" style="fill: none"/>
    <path d="M 1224.654545 1458.72 
L 1346.4 1458.72 
L 1346.4 1640.16 
L 1224.654545 1640.16 
L 1224.654545 1458.72 
" clip-path="url(#p3c79f7d61b)" style="fill: none"/>
    <path d="M 7.2 1640.16 
L 128.945455 1640.16 
L 128.945455 1821.6 
L 7.2 1821.6 
L 7.2 1640.16 
" clip-path="url(#p3c79f7d61b)" style="fill: none"/>
    <path d="M 128.945455 1640.16 
L 250.690909 1640.16 
L 250.690909 1821.6 
L 128.945455 1821.6 
L 128.945455 1640.16 
" clip-path="url(#p3c79f7d61b)" style="fill: #606060"/>
    <path d="M 250.690909 1640.16 
L 372.436364 1640.16 
L 372.436364 1821.6 
L 250.690909 1821.6 
L 250.690909 1640.16 
" clip-path="url(#p3c79f7d61b)" style="fill: #878787"/>
    <path d="M 372.436364 1640.16 
L 494.181818 1640.16 
L 494.181818 1821.6 
L 372.436364 1821.6 
L 372.436364 1640.16 
" clip-path="url(#p3c79f7d61b)" style="fill: #676767"/>
    <path d="M 494.181818 1640.16 
L 615.927273 1640.16 
L 615.927273 1821.6 
L 494.181818 1821.6 
L 494.181818 1640.16 
" clip-path="url(#p3c79f7d61b)" style="fill: #4e4e4e"/>
    <path d="M 615.927273 1640.16 
L 737.672727 1640.16 
L 737.672727 1821.6 
L 615.927273 1821.6 
L 615.927273 1640.16 
" clip-path="url(#p3c79f7d61b)" style="fill: #777777"/>
    <path d="M 737.672727 1640.16 
L 859.418182 1640.16 
L 859.418182 1821.6 
L 737.672727 1821.6 
L 737.672727 1640.16 
" clip-path="url(#p3c79f7d61b)" style="fill: #636363"/>
    <path d="M 859.418182 1640.16 
L 981.163636 1640.16 
L 981.163636 1821.6 
L 859.418182 1821.6 
L 859.418182 1640.16 
" clip-path="url(#p3c79f7d61b)" style="fill: #717171"/>
    <path d="M 981.163636 1640.16 
L 1102.909091 1640.16 
L 1102.909091 1821.6 
L 981.163636 1821.6 
L 981.163636 1640.16 
" clip-path="url(#p3c79f7d61b)" style="fill: #616161"/>
    <path d="M 1102.909091 1640.16 
L 1224.654545 1640.16 
L 1224.654545 1821.6 
L 1102.909091 1821.6 
L 1102.909091 1640.16 
" clip-path="url(#p3c79f7d61b)" style="fill: none"/>
    <path d="M 1224.654545 1640.16 
L 1346.4 1640.16 
L 1346.4 1821.6 
L 1224.654545 1821.6 
L 1224.654545 1640.16 
" clip-path="url(#p3c79f7d61b)" style="fill: none"/>
    <path d="M 7.2 1821.6 
L 128.945455 1821.6 
L 128.945455 2003.04 
L 7.2 2003.04 
L 7.2 1821.6 
" clip-path="url(#p3c79f7d61b)" style="fill: none"/>
    <path d="M 128.945455 1821.6 
L 250.690909 1821.6 
L 250.690909 2003.04 
L 128.945455 2003.04 
L 128.945455 1821.6 
" clip-path="url(#p3c79f7d61b)" style="fill: #8c8c8c"/>
    <path d="M 250.690909 1821.6 
L 372.436364 1821.6 
L 372.436364 2003.04 
L 250.690909 2003.04 
L 250.690909 1821.6 
" clip-path="url(#p3c79f7d61b)" style="fill: #545454"/>
    <path d="M 372.436364 1821.6 
L 494.181818 1821.6 
L 494.181818 2003.04 
L 372.436364 2003.04 
L 372.436364 1821.6 
" clip-path="url(#p3c79f7d61b)" style="fill: #7f7f7f"/>
    <path d="M 494.181818 1821.6 
L 615.927273 1821.6 
L 615.927273 2003.04 
L 494.181818 2003.04 
L 494.181818 1821.6 
" clip-path="url(#p3c79f7d61b)" style="fill: #575757"/>
    <path d="M 615.927273 1821.6 
L 737.672727 1821.6 
L 737.672727 2003.04 
L 615.927273 2003.04 
L 615.927273 1821.6 
" clip-path="url(#p3c79f7d61b)" style="fill: #8d8d8d"/>
    <path d="M 737.672727 1821.6 
L 859.418182 1821.6 
L 859.418182 2003.04 
L 737.672727 2003.04 
L 737.672727 1821.6 
" clip-path="url(#p3c79f7d61b)" style="fill: #292929"/>
    <path d="M 859.418182 1821.6 
L 981.163636 1821.6 
L 981.163636 2003.04 
L 859.418182 2003.04 
L 859.418182 1821.6 
" clip-path="url(#p3c79f7d61b)" style="fill: #797979"/>
    <path d="M 981.163636 1821.6 
L 1102.909091 1821.6 
L 1102.909091 2003.04 
L 981.163636 2003.04 
L 981.163636 1821.6 
" clip-path="url(#p3c79f7d61b)" style="fill: #787878"/>
    <path d="M 1102.909091 1821.6 
L 1224.654545 1821.6 
L 1224.654545 2003.04 
L 1102.909091 2003.04 
L 1102.909091 1821.6 
" clip-path="url(#p3c79f7d61b)" style="fill: #676767"/>
    <path d="M 1224.654545 1821.6 
L 1346.4 1821.6 
L 1346.4 2003.04 
L 1224.654545 2003.04 
L 1224.654545 1821.6 
" clip-path="url(#p3c79f7d61b)" style="fill: none"/>
   </g>
  </g>
 </g>
 <defs>
  <clipPath id="p3c79f7d61b">
   <rect x="7.2" y="7.2" width="1339.2" height="1995.84"/>
  </clipPath>
 </defs>
</svg>
